# xmcd CD database file
#
# Track frame offsets:
#	150
#	39170
#	66422
#	94617
#	111742
#	134722
#	159957
#	180055
#	191862
#	220847
#	244722
#	251400
#
# Disc length: 3536 seconds
#
# Revision: 0
# Processed by: cddbd v1.5PL3 Copyright (c) Steve Scherf et al.
# Submitted via: CDex 1.50
#
DISCID=a60dce0c
DTITLE=Cyrus Chestnut - Soul Food
DYEAR=1900
DGENRE=Jazz
TTITLE0=soul food
TTITLE1=brother with the mint green vine
TTITLE2=cerebral thought
TTITLE3=fantasia
TTITLE4=swing low sweet chariot
TTITLE5=brother hawky hawk
TTITLE6=minor funk
TTITLE7=coming through the rye
TTITLE8=in the underground
TTITLE9=wellllll!
TTITLE10=goodnight
TTITLE11=homer's blues 
EXTD=
EXTT0=
EXTT1=
EXTT2=
EXTT3=
EXTT4=
EXTT5=
EXTT6=
EXTT7=
EXTT8=
EXTT9=
EXTT10=
EXTT11=
PLAYORDER=
